<svg xmlns="http://www.w3.org/2000/svg" xmlns:xlink="http://www.w3.org/1999/xlink" id="Layer_1" x="0" y="0" version="1.1" viewBox="0 0 1000 1000" style="enable-background:new 0 0 1000 1000" xml:space="preserve"><style type="text/css">.st0{fill:#fff}</style><g><path d="M171.83,501.38l-29.96-93.18h37.62l13.41,53.82l-3.48-0.7l15.33-41.8h20.55l17.07,41.8l-3.48,0.52l13.24-53.64 h37.62l-31.87,93.18h-26.82l-16.02-43.19h0.7l-17.07,43.19H171.83z" class="st0"/><path d="M323.52,503.12c-10.8,0-20.09-2.09-27.87-6.27c-7.78-4.18-13.76-9.9-17.94-17.15 c-4.18-7.25-6.27-15.59-6.27-24.99c0-6.97,1.16-13.41,3.48-19.33c2.32-5.92,5.6-11.06,9.84-15.41c4.24-4.35,9.23-7.72,14.98-10.1 c5.75-2.38,12.04-3.57,18.9-3.57c6.85,0,13.09,1.19,18.72,3.57c5.63,2.38,10.48,5.75,14.54,10.1c4.06,4.35,7.17,9.49,9.32,15.41 c2.15,5.92,3.1,12.37,2.87,19.33l-0.17,7.31h-72.97l-4.01-16.55h48.94l-3.31,3.48v-3.13c0-2.2-0.55-4.15-1.65-5.83 c-1.1-1.68-2.64-2.99-4.62-3.92c-1.98-0.93-4.3-1.39-6.97-1.39c-3.37,0-6.21,0.7-8.53,2.09c-2.32,1.39-4.09,3.37-5.31,5.92 c-1.22,2.56-1.83,5.63-1.83,9.23c0,4.18,0.9,7.84,2.7,10.97c1.8,3.13,4.47,5.57,8.01,7.31c3.54,1.74,7.92,2.61,13.15,2.61 c3.48,0,6.47-0.44,8.97-1.31c2.5-0.87,5.14-2.29,7.92-4.27l16.2,22.81c-4.3,3.37-8.51,5.98-12.63,7.84 c-4.12,1.86-8.19,3.2-12.19,4.01C331.79,502.71,327.7,503.12,323.52,503.12z" class="st0"/><path d="M419.83,503.3c-4.3,0-8.36-0.52-12.19-1.57s-7.23-2.5-10.19-4.35c-2.96-1.86-5.43-4.06-7.4-6.62 c-1.98-2.55-3.25-5.34-3.83-8.36l7.14-1.57l-2.79,20.55H358.7V372.5h35.53v58.52l-7.84-2.44c0.7-3.13,2.06-6.07,4.09-8.79 c2.03-2.73,4.5-5.11,7.4-7.14c2.9-2.03,6.15-3.6,9.75-4.7c3.6-1.1,7.37-1.65,11.32-1.65c7.89,0,14.89,2.09,20.99,6.27 c6.1,4.18,10.88,9.93,14.37,17.24c3.48,7.31,5.23,15.67,5.23,25.08c0,9.52-1.71,17.91-5.14,25.17 c-3.43,7.26-8.13,12.95-14.11,17.07C434.31,501.24,427.49,503.3,419.83,503.3z M409.2,474.56c3.37,0,6.21-0.78,8.53-2.35 c2.32-1.57,4.09-3.8,5.31-6.71c1.22-2.9,1.83-6.44,1.83-10.62s-0.61-7.75-1.83-10.71c-1.22-2.96-2.99-5.19-5.31-6.71 c-2.32-1.51-5.17-2.26-8.53-2.26c-3.37,0-6.24,0.76-8.62,2.26c-2.38,1.51-4.18,3.74-5.4,6.71c-1.22,2.96-1.83,6.53-1.83,10.71 s0.61,7.72,1.83,10.62c1.22,2.9,3.02,5.14,5.4,6.71C402.96,473.78,405.83,474.56,409.2,474.56z" class="st0"/><path d="M197.6,627.12c-9.17,0-17.27-1.02-24.29-3.05c-7.03-2.03-13.18-4.9-18.46-8.62 c-5.28-3.71-10.01-8.07-14.19-13.06l21.77-24.38c5.8,7.43,11.87,12.34,18.2,14.72c6.33,2.38,12.28,3.57,17.85,3.57 c2.2,0,4.18-0.2,5.92-0.61c1.74-0.41,3.07-1.07,4.01-2c0.93-0.93,1.39-2.2,1.39-3.83c0-1.51-0.5-2.79-1.48-3.83 c-0.99-1.04-2.29-1.94-3.92-2.7c-1.63-0.75-3.4-1.39-5.31-1.92s-3.77-0.96-5.57-1.31c-1.8-0.35-3.4-0.7-4.79-1.04 c-6.97-1.63-13.06-3.6-18.29-5.92c-5.23-2.32-9.58-5.11-13.06-8.36c-3.48-3.25-6.07-6.97-7.75-11.15 c-1.68-4.18-2.53-8.88-2.53-14.11c0-5.92,1.36-11.32,4.09-16.2c2.73-4.88,6.38-9.06,10.97-12.54c4.59-3.48,9.81-6.15,15.67-8.01 c5.86-1.86,11.93-2.79,18.2-2.79c9.17,0,16.83,0.84,22.99,2.53c6.15,1.68,11.32,4.09,15.5,7.23s7.78,6.79,10.8,10.97l-21.94,21.07 c-2.56-2.44-5.23-4.44-8.01-6.01s-5.66-2.73-8.62-3.48c-2.96-0.75-5.89-1.13-8.79-1.13c-2.67,0-4.94,0.2-6.79,0.61 c-1.86,0.41-3.31,1.04-4.35,1.92c-1.04,0.87-1.57,2.06-1.57,3.57c0,1.51,0.67,2.76,2,3.74c1.33,0.99,3.02,1.83,5.05,2.53 c2.03,0.7,4.06,1.25,6.1,1.65c2.03,0.41,3.74,0.73,5.14,0.96c6.38,1.16,12.25,2.76,17.59,4.79c5.34,2.03,10.01,4.59,14.02,7.66 c4.01,3.08,7.08,6.91,9.23,11.49c2.15,4.59,3.22,10.01,3.22,16.28c0,8.94-2.24,16.43-6.71,22.47c-4.47,6.04-10.48,10.6-18.03,13.67 C215.31,625.58,206.89,627.12,197.6,627.12z" class="st0"/><path d="M289.38,627.12c-9.4,0-17.79-2.09-25.17-6.27c-7.37-4.18-13.18-9.9-17.42-17.15 c-4.24-7.25-6.36-15.59-6.36-24.99s2.12-17.73,6.36-24.99c4.24-7.25,10.04-12.98,17.42-17.16c7.37-4.18,15.76-6.27,25.17-6.27 c8.36,0,16.08,1.28,23.16,3.83c7.08,2.56,12.83,6.27,17.24,11.15l-19.16,22.64c-1.28-1.39-2.79-2.67-4.53-3.83 c-1.74-1.16-3.72-2.06-5.92-2.7c-2.21-0.64-4.76-0.96-7.66-0.96c-3.48,0-6.53,0.76-9.14,2.26c-2.61,1.51-4.62,3.63-6.01,6.36 c-1.39,2.73-2.09,5.89-2.09,9.49c0,3.48,0.67,6.59,2,9.32c1.33,2.73,3.31,4.91,5.92,6.53c2.61,1.63,5.72,2.44,9.32,2.44 c2.9,0,5.46-0.29,7.66-0.87c2.2-0.58,4.18-1.42,5.92-2.53c1.74-1.1,3.25-2.41,4.53-3.92l18.98,22.82 c-4.3,4.76-9.99,8.42-17.07,10.97C305.46,625.84,297.74,627.12,289.38,627.12z" class="st0"/><path d="M326.3,625.38V496.5h34.48v54.51l-7.49,2.09c1.28-4.41,3.57-8.33,6.88-11.75c3.31-3.42,7.28-6.12,11.93-8.1 c4.64-1.97,9.58-2.96,14.8-2.96c6.97,0,12.89,1.45,17.76,4.35c4.88,2.9,8.56,7.17,11.06,12.8c2.5,5.63,3.74,12.45,3.74,20.46v57.47 h-35.35v-54.51c0-2.55-0.41-4.7-1.22-6.44c-0.81-1.74-2.03-3.07-3.66-4c-1.63-0.93-3.54-1.39-5.75-1.39 c-1.74,0-3.34,0.26-4.79,0.78c-1.45,0.52-2.7,1.31-3.74,2.35s-1.86,2.21-2.44,3.48c-0.58,1.28-0.87,2.73-0.87,4.35v55.38h-17.59 c-4.41,0-8.1,0-11.06,0C330.05,625.38,327.81,625.38,326.3,625.38z" class="st0"/><path d="M469.81,627.12c-10.8,0-20.09-2.09-27.87-6.27c-7.78-4.18-13.76-9.9-17.94-17.15 c-4.18-7.25-6.27-15.59-6.27-24.99c0-6.97,1.16-13.41,3.48-19.33c2.32-5.92,5.6-11.06,9.84-15.41c4.24-4.35,9.23-7.72,14.98-10.1 c5.75-2.38,12.04-3.57,18.9-3.57c6.85,0,13.09,1.19,18.72,3.57c5.63,2.38,10.48,5.75,14.54,10.1c4.06,4.35,7.17,9.49,9.32,15.41 c2.15,5.92,3.1,12.37,2.87,19.33l-0.17,7.31h-72.97l-4.01-16.54h48.94l-3.31,3.48v-3.13c0-2.2-0.55-4.15-1.65-5.83 c-1.1-1.68-2.64-2.99-4.62-3.92c-1.98-0.93-4.3-1.39-6.97-1.39c-3.37,0-6.21,0.7-8.53,2.09c-2.32,1.39-4.09,3.37-5.31,5.92 c-1.22,2.55-1.83,5.63-1.83,9.23c0,4.18,0.9,7.84,2.7,10.97c1.8,3.13,4.47,5.57,8.01,7.31c3.54,1.74,7.92,2.61,13.15,2.61 c3.48,0,6.47-0.43,8.97-1.31c2.5-0.87,5.14-2.29,7.92-4.27l16.2,22.81c-4.3,3.37-8.51,5.98-12.63,7.84 c-4.12,1.86-8.19,3.2-12.19,4.01C478.08,626.71,473.99,627.12,469.81,627.12z" class="st0"/><path d="M542.08,627.3c-7.66,0-14.49-2.06-20.46-6.18c-5.98-4.12-10.68-9.81-14.11-17.07 c-3.43-7.25-5.14-15.64-5.14-25.17c0-9.41,1.74-17.76,5.23-25.08c3.48-7.31,8.27-13.06,14.37-17.24s13.09-6.27,20.99-6.27 c3.95,0,7.72,0.55,11.32,1.65c3.6,1.11,6.85,2.67,9.75,4.7c2.9,2.03,5.37,4.41,7.4,7.14c2.03,2.73,3.4,5.66,4.09,8.79l-7.84,2.44 V496.5h35.53v128.88h-31.87l-2.79-20.55l7.14,1.57c-0.58,3.02-1.86,5.81-3.83,8.36c-1.98,2.56-4.44,4.76-7.4,6.62 c-2.96,1.86-6.36,3.31-10.19,4.35C550.44,626.77,546.38,627.3,542.08,627.3z M552.71,598.56c3.37,0,6.24-0.78,8.62-2.35 c2.38-1.57,4.18-3.8,5.4-6.71c1.22-2.9,1.83-6.44,1.83-10.62c0-4.18-0.61-7.75-1.83-10.71c-1.22-2.96-3.02-5.2-5.4-6.71 c-2.38-1.51-5.25-2.26-8.62-2.26c-3.37,0-6.21,0.76-8.53,2.26c-2.32,1.51-4.09,3.74-5.31,6.71c-1.22,2.96-1.83,6.53-1.83,10.71 c0,4.18,0.61,7.72,1.83,10.62c1.22,2.9,2.99,5.14,5.31,6.71C546.5,597.78,549.34,598.56,552.71,598.56z" class="st0"/><path d="M642.4,627.3c-7.08,0-13.06-1.45-17.94-4.35c-4.88-2.9-8.59-7.17-11.15-12.8c-2.56-5.63-3.83-12.45-3.83-20.46 v-57.47h35.35v54.51c0,2.55,0.44,4.7,1.31,6.44c0.87,1.74,2.12,3.08,3.74,4.01c1.63,0.93,3.6,1.39,5.92,1.39 c1.74,0,3.34-0.26,4.79-0.78c1.45-0.52,2.7-1.31,3.74-2.35s1.86-2.23,2.44-3.57c0.58-1.33,0.87-2.76,0.87-4.27v-55.38H703v93.17 h-32.39l-2.09-18.81l6.62-2.09c-1.28,4.41-3.51,8.33-6.71,11.76c-3.2,3.43-7.05,6.13-11.58,8.1S647.5,627.3,642.4,627.3z" class="st0"/><path d="M710.32,625.38V496.5h35.35v128.88H710.32z" class="st0"/><path d="M752.64,625.38v-93.17h32.74l2.09,31l-7.84-4.88c1.51-5.34,3.89-10.13,7.14-14.37 c3.25-4.24,7.17-7.58,11.76-10.01c4.58-2.44,9.49-3.66,14.72-3.66c2.09,0,4.06,0.15,5.92,0.44c1.86,0.29,3.66,0.67,5.4,1.13 l-9.75,39.19c-1.16-0.81-2.99-1.57-5.49-2.26c-2.5-0.7-5.2-1.04-8.1-1.04c-2.09,0-3.98,0.32-5.66,0.96 c-1.68,0.64-3.08,1.6-4.18,2.87c-1.1,1.28-1.95,2.79-2.53,4.53c-0.58,1.74-0.87,3.77-0.87,6.1v43.19H752.64z" class="st0"/></g></svg>