<svg id="Layer_1" data-name="Layer 1" xmlns="http://www.w3.org/2000/svg" viewBox="0 0 683.91 254.79"><title>logo_black</title><path d="M171.83,501.38l-30-93.17h37.62L192.9,462l-3.48-.7,15.32-41.79h20.55l17.07,41.79-3.48.53,13.23-53.64h37.62l-31.87,93.17H231l-16-43.19h.69l-17.06,43.19Z" transform="translate(-140.65 -372.5)"/><path d="M323.52,503.12q-16.2,0-27.87-6.27a44.43,44.43,0,0,1-17.94-17.15,49.18,49.18,0,0,1-6.27-25,52.4,52.4,0,0,1,3.49-19.34A45.79,45.79,0,0,1,284.77,420a44.34,44.34,0,0,1,15-10.1,48.94,48.94,0,0,1,18.9-3.57,47.61,47.61,0,0,1,18.72,3.57A42.17,42.17,0,0,1,351.91,420a44.7,44.7,0,0,1,9.31,15.41,51.27,51.27,0,0,1,2.88,19.34l-.18,7.31H291l-4-16.54h48.94L332.57,449v-3.14a10.42,10.42,0,0,0-1.65-5.83,11,11,0,0,0-4.62-3.92,18.33,18.33,0,0,0-15.5.7,13.53,13.53,0,0,0-5.31,5.92,21.25,21.25,0,0,0-1.83,9.23,21.63,21.63,0,0,0,2.7,11,18.24,18.24,0,0,0,8,7.32,29.69,29.69,0,0,0,13.15,2.61,27.34,27.34,0,0,0,9-1.31,32.49,32.49,0,0,0,7.93-4.26l16.19,22.81A61.76,61.76,0,0,1,348,497.9a57.46,57.46,0,0,1-12.19,4A61.84,61.84,0,0,1,323.52,503.12Z" transform="translate(-140.65 -372.5)"/><path d="M419.83,503.3a46.32,46.32,0,0,1-12.19-1.57,38,38,0,0,1-10.19-4.35,28.19,28.19,0,0,1-7.4-6.62,19.48,19.48,0,0,1-3.84-8.36l7.14-1.57-2.78,20.55H358.7V372.5h35.53V431l-7.84-2.44a23,23,0,0,1,4.09-8.79,32,32,0,0,1,7.4-7.14,34.76,34.76,0,0,1,9.76-4.71A38.46,38.46,0,0,1,419,406.29a36.19,36.19,0,0,1,21,6.27,42.53,42.53,0,0,1,14.37,17.24,57.74,57.74,0,0,1,5.23,25.08q0,14.28-5.14,25.17a42,42,0,0,1-14.11,17.06A35.13,35.13,0,0,1,419.83,503.3ZM409.2,474.56a14.91,14.91,0,0,0,8.54-2.35,14.71,14.71,0,0,0,5.31-6.71,27.39,27.39,0,0,0,1.83-10.62,28.08,28.08,0,0,0-1.83-10.71,14.16,14.16,0,0,0-5.31-6.71,15.44,15.44,0,0,0-8.54-2.26,15.84,15.84,0,0,0-8.62,2.26,14,14,0,0,0-5.4,6.71,28.08,28.08,0,0,0-1.83,10.71,27.39,27.39,0,0,0,1.83,10.62,14.5,14.5,0,0,0,5.4,6.71A15.29,15.29,0,0,0,409.2,474.56Z" transform="translate(-140.65 -372.5)"/><path d="M197.6,627.12a87.68,87.68,0,0,1-24.29-3,61.27,61.27,0,0,1-18.46-8.62,73.26,73.26,0,0,1-14.2-13.06L162.42,578q8.72,11.15,18.2,14.72a50.84,50.84,0,0,0,17.85,3.57,26.47,26.47,0,0,0,5.92-.61,8.16,8.16,0,0,0,4-2,5.15,5.15,0,0,0,1.39-3.83,5.36,5.36,0,0,0-1.48-3.83,12.79,12.79,0,0,0-3.92-2.7,33.42,33.42,0,0,0-5.31-1.91c-1.91-.53-3.77-1-5.57-1.31s-3.4-.7-4.79-1.05a101.61,101.61,0,0,1-18.29-5.92,46.56,46.56,0,0,1-13.06-8.36,30.93,30.93,0,0,1-7.75-11.14,37.54,37.54,0,0,1-2.52-14.11,32.61,32.61,0,0,1,4.09-16.2,40.51,40.51,0,0,1,11-12.54,51.46,51.46,0,0,1,15.67-8A60.16,60.16,0,0,1,196,500q13.75,0,23,2.52a45.61,45.61,0,0,1,15.5,7.23,50.82,50.82,0,0,1,10.8,11l-21.94,21.07a40.44,40.44,0,0,0-8-6A35.45,35.45,0,0,0,198,531.16a32.69,32.69,0,0,0-6.79.61,10.19,10.19,0,0,0-4.36,1.92,4.41,4.41,0,0,0-1.56,3.57,4.45,4.45,0,0,0,2,3.74,18.59,18.59,0,0,0,5,2.53,47.16,47.16,0,0,0,6.1,1.65q3,.62,5.13,1a99.44,99.44,0,0,1,17.59,4.79,54.94,54.94,0,0,1,14,7.66,30.75,30.75,0,0,1,9.23,11.49,38.09,38.09,0,0,1,3.23,16.29q0,13.41-6.71,22.47a41.29,41.29,0,0,1-18,13.67A66.41,66.41,0,0,1,197.6,627.12Z" transform="translate(-140.65 -372.5)"/><path d="M289.38,627.12a50.11,50.11,0,0,1-25.16-6.27A46.12,46.12,0,0,1,246.8,603.7a52.3,52.3,0,0,1,0-50,46.19,46.19,0,0,1,17.42-17.15,50.11,50.11,0,0,1,25.16-6.27,67.88,67.88,0,0,1,23.16,3.83,42,42,0,0,1,17.25,11.15l-19.16,22.64a24.5,24.5,0,0,0-4.53-3.83,21.37,21.37,0,0,0-5.92-2.7,27.6,27.6,0,0,0-7.66-1,18.07,18.07,0,0,0-9.15,2.26,15.18,15.18,0,0,0-6,6.36,20.63,20.63,0,0,0-2.09,9.49,20.86,20.86,0,0,0,2,9.32,15.61,15.61,0,0,0,5.92,6.53,17.24,17.24,0,0,0,9.32,2.44,30.3,30.3,0,0,0,7.66-.87,20.79,20.79,0,0,0,5.92-2.53,19.69,19.69,0,0,0,4.53-3.92l19,22.82a41.25,41.25,0,0,1-17.07,11A67.88,67.88,0,0,1,289.38,627.12Z" transform="translate(-140.65 -372.5)"/><path d="M326.3,625.38V496.5h34.49V551l-7.49,2.09a27.82,27.82,0,0,1,6.88-11.75,36,36,0,0,1,11.93-8.1,37.5,37.5,0,0,1,14.8-3q10.45,0,17.76,4.35a27.31,27.31,0,0,1,11.06,12.8q3.75,8.46,3.75,20.47v57.47H384.12V570.87a15.31,15.31,0,0,0-1.22-6.45,8.76,8.76,0,0,0-3.65-4A11.41,11.41,0,0,0,373.5,559a14.11,14.11,0,0,0-4.79.78,10,10,0,0,0-3.74,2.35,11.87,11.87,0,0,0-2.44,3.48,10.44,10.44,0,0,0-.87,4.36v55.38H326.3Z" transform="translate(-140.65 -372.5)"/><path d="M469.81,627.12q-16.2,0-27.87-6.27A44.43,44.43,0,0,1,424,603.7a49.18,49.18,0,0,1-6.27-25,52.31,52.31,0,0,1,3.49-19.33A45.74,45.74,0,0,1,431.06,544a44.28,44.28,0,0,1,15-10.1,48.86,48.86,0,0,1,18.89-3.57,47.61,47.61,0,0,1,18.72,3.57A42.17,42.17,0,0,1,498.2,544a44.65,44.65,0,0,1,9.31,15.42,51.18,51.18,0,0,1,2.88,19.33l-.18,7.31h-73l-4-16.54h48.93L478.86,573v-3.14a10.42,10.42,0,0,0-1.65-5.83,11,11,0,0,0-4.61-3.92,18.35,18.35,0,0,0-15.51.7,13.53,13.53,0,0,0-5.31,5.92,21.25,21.25,0,0,0-1.83,9.23,21.63,21.63,0,0,0,2.7,11,18.22,18.22,0,0,0,8,7.32,29.64,29.64,0,0,0,13.14,2.61,27.3,27.3,0,0,0,9-1.31,32.49,32.49,0,0,0,7.93-4.26l16.19,22.81a61.76,61.76,0,0,1-12.62,7.84,57.28,57.28,0,0,1-12.19,4A61.84,61.84,0,0,1,469.81,627.12Z" transform="translate(-140.65 -372.5)"/><path d="M542.08,627.3a35.13,35.13,0,0,1-20.46-6.19,42,42,0,0,1-14.11-17.06q-5.13-10.89-5.13-25.17a57.74,57.74,0,0,1,5.22-25.08A42.53,42.53,0,0,1,522,536.56a36.2,36.2,0,0,1,21-6.27,38.6,38.6,0,0,1,11.32,1.65,34.83,34.83,0,0,1,9.75,4.71,32,32,0,0,1,7.4,7.14,22.9,22.9,0,0,1,4.09,8.79L567.69,555V496.5h35.52V625.38H571.34l-2.78-20.55,7.14,1.57a19.7,19.7,0,0,1-3.83,8.36,28.4,28.4,0,0,1-7.41,6.62,38.07,38.07,0,0,1-10.18,4.35A46.45,46.45,0,0,1,542.08,627.3Zm10.63-28.74a15.32,15.32,0,0,0,8.62-2.35,14.5,14.5,0,0,0,5.4-6.71,27.39,27.39,0,0,0,1.83-10.62,28.08,28.08,0,0,0-1.83-10.71,14,14,0,0,0-5.4-6.71,15.86,15.86,0,0,0-8.62-2.26,15.44,15.44,0,0,0-8.54,2.26,14.16,14.16,0,0,0-5.31,6.71A28.08,28.08,0,0,0,537,578.88a27.39,27.39,0,0,0,1.83,10.62,14.71,14.71,0,0,0,5.31,6.71A14.91,14.91,0,0,0,552.71,598.56Z" transform="translate(-140.65 -372.5)"/><path d="M642.4,627.3q-10.64,0-17.94-4.36a27.66,27.66,0,0,1-11.15-12.8q-3.82-8.45-3.83-20.46V532.21h35.35v54.51a14.32,14.32,0,0,0,1.31,6.44,9.31,9.31,0,0,0,3.74,4,11.77,11.77,0,0,0,5.93,1.39,14.16,14.16,0,0,0,4.79-.78,10.21,10.21,0,0,0,3.74-2.35,11.69,11.69,0,0,0,2.44-3.57,10.62,10.62,0,0,0,.87-4.27V532.21H703v93.17H670.61l-2.09-18.81,6.62-2.09a28.72,28.72,0,0,1-6.71,11.76,34.53,34.53,0,0,1-11.58,8.1A35.86,35.86,0,0,1,642.4,627.3Z" transform="translate(-140.65 -372.5)"/><path d="M710.32,625.38V496.5h35.35V625.38Z" transform="translate(-140.65 -372.5)"/><path d="M752.64,625.38V532.21h32.74l2.09,31-7.84-4.88A42.29,42.29,0,0,1,786.77,544a35.92,35.92,0,0,1,11.76-10,30.84,30.84,0,0,1,14.71-3.66,38.29,38.29,0,0,1,5.92.44,50.57,50.57,0,0,1,5.4,1.13L814.81,571a18.88,18.88,0,0,0-5.49-2.26,29.81,29.81,0,0,0-8.09-1,16,16,0,0,0-5.66,1,10.13,10.13,0,0,0-4.18,2.88,13,13,0,0,0-2.53,4.52,19.39,19.39,0,0,0-.87,6.1v43.19Z" transform="translate(-140.65 -372.5)"/></svg>